bw_sq_01
version=1
nRows=22
nColumns=46
inDegrees=yes
endheader
time	ground_force3_vx	ground_force3_vy	ground_force3_vz	ground_force3_px	ground_force3_py	ground_force3_pz	ground_torque3_x	ground_torque3_y	ground_torque3_z	ground_force5_vx	ground_force5_vy	ground_force5_vz	ground_force5_px	ground_force5_py	ground_force5_pz	ground_torque5_x	ground_torque5_y	ground_torque5_z	ground_force4_vx	ground_force4_vy	ground_force4_vz	ground_force4_px	ground_force4_py	ground_force4_pz	ground_torque4_x	ground_torque4_y	ground_torque4_z	ground_force1_vx	ground_force1_vy	ground_force1_vz	ground_force1_px	ground_force1_py	ground_force1_pz	ground_torque1_x	ground_torque1_y	ground_torque1_z	ground_force2_vx	ground_force2_vy	ground_force2_vz	ground_force2_px	ground_force2_py	ground_force2_pz	ground_torque2_x	ground_torque2_y	ground_torque2_z
0.958000	-0.000000	-0.000000	0.000000	0.200000	0.000000	-0.300000	0.000000	0.000000	-0.000000	2.652489	345.252960	21.623825	0.232277	0.000000	-1.318727	0.000034	-0.497137	0.000002	4.558550	321.359314	-23.749762	0.220119	0.000000	-1.048683	0.000005	-0.515597	0.000004	-0.000000	-0.000000	0.000000	0.200000	0.000000	0.904000	0.000000	0.000000	-0.000000	-0.000000	-0.000000	0.000000	0.400000	0.000000	0.302000	0.000000	0.000000	-0.000000	
0.959000	-0.000000	-0.000000	0.000000	0.200000	0.000000	-0.300000	0.000000	0.000000	-0.000000	2.491276	342.381958	22.267317	0.232423	0.000000	-1.316635	-0.000006	-0.436347	0.000005	4.721137	321.358337	-23.266119	0.220116	0.000000	-1.049456	0.000007	-0.500882	0.000004	-0.000000	-0.000000	0.000000	0.200000	0.000000	0.904000	0.000000	0.000000	-0.000000	-0.000000	-0.000000	0.000000	0.400000	0.000000	0.302000	0.000000	0.000000	-0.000000	
0.960000	-0.000000	-0.000000	0.000000	0.200000	0.000000	-0.300000	0.000000	0.000000	-0.000000	2.975425	344.296661	21.464306	0.232889	0.000000	-1.318410	0.000017	-0.438231	0.000002	4.073879	324.245758	-23.909277	0.219211	0.000000	-1.047128	0.000010	-0.366853	0.000003	-0.000000	-0.000000	0.000000	0.200000	0.000000	0.904000	0.000000	0.000000	-0.000000	-0.000000	-0.000000	0.000000	0.400000	0.000000	0.302000	0.000000	0.000000	-0.000000	
0.961000	-0.000000	-0.000000	0.000000	0.200000	0.000000	-0.300000	0.000000	0.000000	-0.000000	2.813702	343.657501	21.303772	0.232528	0.000000	-1.316313	0.000021	-0.333489	0.000004	4.560095	324.884552	-23.910297	0.219449	0.000000	-1.046808	0.000016	-0.436070	0.000006	-0.000000	-0.000000	0.000000	0.200000	0.000000	0.904000	0.000000	0.000000	-0.000000	-0.000000	-0.000000	0.000000	0.400000	0.000000	0.302000	0.000000	0.000000	-0.000000	
0.962000	-0.000000	-0.000000	0.000000	0.200000	0.000000	-0.300000	0.000000	0.000000	-0.000000	3.136127	342.382599	21.785038	0.232694	0.000000	-1.316299	-0.000003	-0.453049	0.000005	4.561640	322.330444	-23.588207	0.218776	0.000000	-1.047185	0.000016	-0.395322	0.000003	-0.000000	-0.000000	0.000000	0.200000	0.000000	0.904000	0.000000	0.000000	-0.000000	-0.000000	-0.000000	0.000000	0.400000	0.000000	0.302000	0.000000	0.000000	-0.000000	
0.963000	-0.000000	-0.000000	0.000000	0.200000	0.000000	-0.300000	0.000000	0.000000	-0.000000	2.973387	343.337982	21.142221	0.232695	0.000000	-1.318500	0.000030	-0.243846	0.000002	4.722682	322.326752	-23.590248	0.218989	0.000000	-1.047602	-0.000001	-0.525118	0.000001	-0.000000	-0.000000	0.000000	0.200000	0.000000	0.904000	0.000000	0.000000	-0.000000	-0.000000	-0.000000	0.000000	0.400000	0.000000	0.302000	0.000000	0.000000	-0.000000	
0.964000	-0.000000	-0.000000	0.000000	0.200000	0.000000	-0.300000	0.000000	0.000000	-0.000000	2.652999	342.382629	22.267994	0.232440	0.000000	-1.316206	0.000011	-0.424789	0.000005	5.047856	320.402344	-23.591269	0.219338	0.000000	-1.048110	-0.000018	-0.540387	0.000000	-0.000000	-0.000000	0.000000	0.200000	0.000000	0.904000	0.000000	0.000000	-0.000000	-0.000000	-0.000000	0.000000	0.400000	0.000000	0.302000	0.000000	0.000000	-0.000000	
0.965000	-0.000000	-0.000000	0.000000	0.200000	0.000000	-0.300000	0.000000	0.000000	-0.000000	3.296322	342.379303	21.785713	0.232540	0.000000	-1.318434	0.000008	-0.253023	0.000001	4.564728	320.730316	-23.589228	0.218572	0.000000	-1.046920	-0.000013	-0.308547	0.000002	-0.000000	-0.000000	0.000000	0.200000	0.000000	0.904000	0.000000	0.000000	-0.000000	-0.000000	-0.000000	0.000000	0.400000	0.000000	0.302000	0.000000	0.000000	-0.000000	
0.966000	-0.000000	-0.000000	0.000000	0.200000	0.000000	-0.300000	0.000000	0.000000	-0.000000	2.652489	343.021027	21.945910	0.232400	0.000000	-1.318795	0.000010	-0.433234	0.000004	4.722682	320.730286	-23.750782	0.218347	0.000000	-1.048232	0.000013	-0.521016	0.000002	-0.000000	-0.000000	0.000000	0.200000	0.000000	0.904000	0.000000	0.000000	-0.000000	-0.000000	-0.000000	0.000000	0.400000	0.000000	0.302000	0.000000	0.000000	-0.000000	
0.967000	-0.000000	-0.000000	0.000000	0.200000	0.000000	-0.300000	0.000000	0.000000	-0.000000	2.975425	342.064056	21.303772	0.232613	0.000000	-1.316818	0.000048	-0.403078	0.000001	5.373030	321.687988	-24.394960	0.219139	0.000000	-1.046767	0.000018	-0.447300	0.000004	-0.000000	-0.000000	0.000000	0.200000	0.000000	0.904000	0.000000	0.000000	-0.000000	-0.000000	-0.000000	0.000000	0.400000	0.000000	0.302000	0.000000	0.000000	-0.000000	
0.968000	-0.000000	-0.000000	0.000000	0.200000	0.000000	-0.300000	0.000000	0.000000	-0.000000	2.813193	341.423309	21.945910	0.232268	0.000000	-1.316724	0.000041	-0.362597	0.000004	5.211988	320.407715	-23.750782	0.218740	0.000000	-1.048161	-0.000013	-0.420578	0.000002	-0.000000	-0.000000	0.000000	0.200000	0.000000	0.904000	0.000000	0.000000	-0.000000	-0.000000	-0.000000	0.000000	0.400000	0.000000	0.302000	0.000000	0.000000	-0.000000	
0.969000	-0.000000	-0.000000	0.000000	0.200000	0.000000	-0.300000	0.000000	0.000000	-0.000000	3.780469	342.382935	21.785376	0.232975	0.000000	-1.317173	0.000026	-0.367554	0.000004	4.722682	320.092529	-23.429714	0.217773	0.000000	-1.048097	0.000014	-0.578263	-0.000000	-0.000000	-0.000000	0.000000	0.200000	0.000000	0.904000	0.000000	0.000000	-0.000000	-0.000000	-0.000000	0.000000	0.400000	0.000000	0.302000	0.000000	0.000000	-0.000000	
0.970000	-0.000000	-0.000000	0.000000	0.200000	0.000000	-0.300000	0.000000	0.000000	-0.000000	2.974406	340.468628	21.946587	0.232476	0.000000	-1.316347	0.000020	-0.290987	0.000004	5.374575	321.695007	-23.752823	0.217923	0.000000	-1.046295	-0.000010	-0.498484	0.000005	-0.000000	-0.000000	0.000000	0.200000	0.000000	0.904000	0.000000	0.000000	-0.000000	-0.000000	-0.000000	0.000000	0.400000	0.000000	0.302000	0.000000	0.000000	-0.000000	
0.971000	-0.000000	-0.000000	0.000000	0.200000	0.000000	-0.300000	0.000000	0.000000	-0.000000	3.135618	341.743195	21.946249	0.232381	0.000000	-1.317574	0.000024	-0.333280	0.000002	4.889903	322.333130	-24.075930	0.218062	0.000000	-1.045191	-0.000012	-0.420881	0.000007	-0.000000	-0.000000	0.000000	0.200000	0.000000	0.904000	0.000000	0.000000	-0.000000	-0.000000	-0.000000	0.000000	0.400000	0.000000	0.302000	0.000000	0.000000	-0.000000	
0.972000	-0.000000	-0.000000	0.000000	0.200000	0.000000	-0.300000	0.000000	0.000000	-0.000000	3.617219	340.465302	21.623825	0.232168	0.000000	-1.316384	0.000011	-0.179108	0.000005	5.054033	320.097595	-23.912336	0.217452	0.000000	-1.046485	0.000039	-0.274535	0.000005	-0.000000	-0.000000	0.000000	0.200000	0.000000	0.904000	0.000000	0.000000	-0.000000	-0.000000	-0.000000	0.000000	0.400000	0.000000	0.302000	0.000000	0.000000	-0.000000	
0.973000	-0.000000	-0.000000	0.000000	0.200000	0.000000	-0.300000	0.000000	0.000000	-0.000000	2.813702	338.555603	22.107460	0.232456	0.000000	-1.316839	0.000033	-0.340134	0.000005	5.376119	319.774323	-24.073891	0.217361	0.000000	-1.048167	0.000010	-0.413288	0.000005	-0.000000	-0.000000	0.000000	0.200000	0.000000	0.904000	0.000000	0.000000	-0.000000	-0.000000	-0.000000	0.000000	0.400000	0.000000	0.302000	0.000000	0.000000	-0.000000	
0.974000	-0.000000	-0.000000	0.000000	0.200000	0.000000	-0.300000	0.000000	0.000000	-0.000000	3.296322	338.559631	22.267656	0.233100	0.000000	-1.316412	0.000041	-0.293736	0.000004	5.379207	320.413452	-24.398018	0.217769	0.000000	-1.047035	0.000028	-0.340031	0.000002	-0.000000	-0.000000	0.000000	0.200000	0.000000	0.904000	0.000000	0.000000	-0.000000	-0.000000	-0.000000	0.000000	0.400000	0.000000	0.302000	0.000000	0.000000	-0.000000	
0.975000	-0.000000	-0.000000	0.000000	0.200000	0.000000	-0.300000	0.000000	0.000000	-0.000000	2.813193	341.744171	21.464985	0.232539	0.000000	-1.318091	0.000016	-0.221818	0.000002	6.184420	320.736023	-23.752823	0.217308	0.000000	-1.048279	-0.000002	-0.609083	0.000002	-0.000000	-0.000000	0.000000	0.200000	0.000000	0.904000	0.000000	0.000000	-0.000000	-0.000000	-0.000000	0.000000	0.400000	0.000000	0.302000	0.000000	0.000000	-0.000000	
0.976000	-0.000000	-0.000000	0.000000	0.200000	0.000000	-0.300000	0.000000	0.000000	-0.000000	2.974915	338.552612	21.463966	0.232077	0.000000	-1.315624	0.000022	-0.386782	0.000006	6.187510	321.058594	-23.589228	0.217466	0.000000	-1.045753	0.000022	-0.366863	0.000004	-0.000000	-0.000000	0.000000	0.200000	0.000000	0.904000	0.000000	0.000000	-0.000000	-0.000000	-0.000000	0.000000	0.400000	0.000000	0.302000	0.000000	0.000000	-0.000000	
0.977000	-0.000000	-0.000000	0.000000	0.200000	0.000000	-0.300000	0.000000	0.000000	-0.000000	3.779451	339.193359	22.267994	0.233107	0.000000	-1.317683	0.000057	-0.201859	0.000006	6.028011	321.055542	-23.913357	0.217189	0.000000	-1.047518	0.000035	-0.336015	0.000003	-0.000000	-0.000000	0.000000	0.200000	0.000000	0.904000	0.000000	0.000000	-0.000000	-0.000000	-0.000000	0.000000	0.400000	0.000000	0.302000	0.000000	0.000000	-0.000000	
0.978000	-0.000000	-0.000000	0.000000	0.200000	0.000000	-0.300000	0.000000	0.000000	-0.000000	3.458044	336.325043	22.427851	0.233051	0.000000	-1.316046	0.000016	-0.420804	0.000003	6.511139	322.654358	-24.075930	0.217512	0.000000	-1.046118	0.000040	-0.541304	0.000004	-0.000000	-0.000000	0.000000	0.200000	0.000000	0.904000	0.000000	0.000000	-0.000000	-0.000000	-0.000000	0.000000	0.400000	0.000000	0.302000	0.000000	0.000000	-0.000000	
0.979000	-0.000000	-0.000000	0.000000	0.200000	0.000000	-0.300000	0.000000	0.000000	-0.000000	4.100348	339.189728	21.785713	0.232359	0.000000	-1.316858	0.000022	0.002908	0.000005	6.029555	319.136536	-24.074909	0.217110	0.000000	-1.046788	-0.000016	-0.285637	0.000001	-0.000000	-0.000000	0.000000	0.200000	0.000000	0.904000	0.000000	0.000000	-0.000000	-0.000000	-0.000000	0.000000	0.400000	0.000000	0.302000	0.000000	0.000000	-0.000000	
